<svg xmlns="http://www.w3.org/2000/svg" xmlns:xlink="http://www.w3.org/1999/xlink" version="1.1" id="Layer_1" x="0px" y="0px" style="enable-background:new 0 0 746 291;" xml:space="preserve" viewBox="23.2 43.5 543.6 193.7">
<style type="text/css">
	.st0{fill:#176DB6;}
</style>
<g>
	<path class="st0" d="M102.9,209.4c-13.3,0-26.2-3.8-37.3-11c-10.8-6.9-19.5-16.8-25-28.3l-0.5-0.9H61l0.2,0.3   c9.6,13.6,25.1,21.7,41.7,21.7c21.5,0,40.7-13.6,48-33.9c0.3-1,0.7-1.9,0.9-2.9l-84-33.5l0.4-0.7c7.1-12.4,20.4-20.1,34.7-20.1   c18.7,0,35.1,13.1,39.1,31.3h40.4c-2.1-19.4-11.2-37.2-25.7-50.4c-14.8-13.4-33.9-20.8-53.8-20.8S63.7,67.6,49,81   c-14.5,13.3-23.7,31.2-25.8,50.5h11c4.4-34.4,33.7-60.2,68.5-60.2c15,0,29.3,4.7,41.3,13.7c11.6,8.7,20.4,21,24.6,34.7l0.3,0.9   h-19.3l-0.2-0.4c-8.1-18.6-26.4-30.7-46.7-30.7c-23.2,0-43.3,15.6-49.2,37.9l83.8,33.3l-0.4,0.7c-7.3,12-20.2,19.2-34.2,19.2   c-7.7,0-15.1-2.1-21.5-6.3c-6.1-3.9-11.1-9.4-14.4-15.9H24.8c3.9,17.2,13.7,32.9,27.5,44.2c14.2,11.6,32.1,18,50.5,18   c26.5,0,51.3-13.2,66.3-35.1c2.9-4.3,5.4-8.9,7.5-13.6c0.6-1.5,1.2-3,1.7-4.5c1-2.9,1.9-5.9,2.5-8.9h-11.3   c-0.8,3.1-1.9,6.3-3.1,9.4l-0.2,0.4C155.2,193.2,130.4,209.4,102.9,209.4z"/>
	<rect x="211.3" y="43.5" width="7.3" height="193.7"/>
	<g>
		<path d="M269.6,122.1c-4.5,0-8.8-0.7-13.2-2.1c-4.3-1.4-8-3.4-11.1-6l4-6.3c3.3,2.5,6.5,4.3,9.8,5.6c3.3,1.2,6.7,1.9,10.3,1.9    c4,0,7.2-0.8,9.6-2.4s3.6-3.8,3.6-6.7c0-1.3-0.3-2.5-1-3.4s-1.6-1.8-2.9-2.5c-1.3-0.7-2.9-1.3-4.9-1.9s-4.3-1.2-6.9-1.8    c-3.3-0.8-6.2-1.7-8.6-2.4c-2.4-0.8-4.4-1.7-5.9-2.8c-1.6-1.1-2.7-2.3-3.4-3.8c-0.7-1.5-1.1-3.3-1.1-5.5c0-2.8,0.5-5.2,1.6-7.4    c1.1-2.2,2.6-4,4.5-5.4c1.9-1.5,4.2-2.5,6.7-3.3c2.6-0.7,5.4-1.1,8.3-1.1c4.2,0,8.1,0.7,11.7,2c3.6,1.3,6.7,3.1,9.1,5.3l-4.2,5.6    c-2.3-2.1-5-3.6-7.9-4.6s-5.9-1.5-8.9-1.5c-3.4,0-6.3,0.7-8.7,2.2c-2.4,1.5-3.6,3.8-3.6,7c0,1.3,0.2,2.3,0.7,3.2    c0.5,0.8,1.2,1.6,2.3,2.2c1.1,0.6,2.4,1.2,4.1,1.7s3.7,1,6,1.6c3.7,0.8,6.9,1.7,9.6,2.6c2.7,0.9,5,1.9,6.8,3.1    c1.8,1.2,3.1,2.6,4,4.2c0.9,1.6,1.3,3.6,1.3,5.9c0,5.2-2,9.3-5.9,12.3C281.7,120.6,276.3,122.1,269.6,122.1z"/>
		<path d="M325.3,122.1c-4.2,0-8-0.8-11.5-2.3s-6.4-3.6-8.9-6.2s-4.4-5.7-5.8-9.2s-2.1-7.2-2.1-11.1c0-3.9,0.7-7.6,2.1-11    c1.4-3.5,3.3-6.5,5.8-9.1s5.5-4.7,9-6.2s7.3-2.3,11.5-2.3s8,0.8,11.4,2.3c3.4,1.6,6.4,3.6,8.8,6.2c2.4,2.6,4.3,5.6,5.6,9    c1.3,3.4,2,7,2,10.7c0,0.8,0,1.5-0.1,2.1c0,0.6-0.1,1.1-0.2,1.5h-46c0.2,2.8,0.9,5.3,1.9,7.5c1.1,2.3,2.4,4.2,4.1,5.8    c1.7,1.6,3.6,2.9,5.8,3.8c2.2,0.9,4.4,1.4,6.8,1.4c1.7,0,3.4-0.2,5-0.7s3.1-1.1,4.6-1.9c1.4-0.8,2.7-1.7,3.8-2.9    c1.1-1.1,1.9-2.4,2.5-3.8l8.1,2.2c-0.9,2.1-2.2,3.9-3.8,5.6s-3.4,3.2-5.5,4.4c-2.1,1.2-4.4,2.2-7,2.9S328,122.1,325.3,122.1z     M344.3,89.6c-0.2-2.6-0.9-5-2-7.3c-1.1-2.2-2.5-4.1-4.1-5.7c-1.7-1.6-3.6-2.8-5.8-3.7c-2.2-0.9-4.5-1.3-7-1.3s-4.8,0.4-7,1.3    c-2.2,0.9-4.1,2.1-5.8,3.7c-1.7,1.6-3,3.5-4,5.7c-1,2.2-1.6,4.6-1.9,7.2L344.3,89.6L344.3,89.6z"/>
		<path d="M387.1,122.1c-4.2,0-8-0.8-11.5-2.3s-6.4-3.6-8.9-6.2s-4.4-5.7-5.8-9.2s-2.1-7.2-2.1-11.1c0-3.9,0.7-7.6,2.1-11    c1.4-3.5,3.3-6.5,5.8-9.1s5.5-4.7,9-6.2s7.3-2.3,11.5-2.3s8,0.8,11.4,2.3c3.4,1.6,6.4,3.6,8.8,6.2c2.4,2.6,4.3,5.6,5.6,9    c1.3,3.4,2,7,2,10.7c0,0.8,0,1.5-0.1,2.1c0,0.6-0.1,1.1-0.2,1.5h-46c0.2,2.8,0.9,5.3,1.9,7.5c1.1,2.3,2.4,4.2,4.1,5.8    c1.7,1.6,3.6,2.9,5.8,3.8c2.2,0.9,4.4,1.4,6.8,1.4c1.7,0,3.4-0.2,5-0.7s3.1-1.1,4.6-1.9c1.4-0.8,2.7-1.7,3.8-2.9    c1.1-1.1,1.9-2.4,2.5-3.8l8.1,2.2c-0.9,2.1-2.2,3.9-3.8,5.6s-3.4,3.2-5.5,4.4c-2.1,1.2-4.4,2.2-7,2.9S389.9,122.1,387.1,122.1z     M406.1,89.6c-0.2-2.6-0.9-5-2-7.3c-1.1-2.2-2.5-4.1-4.1-5.7c-1.7-1.6-3.6-2.8-5.8-3.7c-2.2-0.9-4.5-1.3-7-1.3s-4.8,0.4-7,1.3    c-2.2,0.9-4.1,2.1-5.8,3.7c-1.7,1.6-3,3.5-4,5.7c-1,2.2-1.6,4.6-1.9,7.2L406.1,89.6L406.1,89.6z"/>
		<path d="M462.8,121l-19.1-27.1l-10.6,10V121h-9.3V43.5h9.3v51l28.5-28.8h10.3l-22.1,22.9l23.1,32.4H462.8L462.8,121z"/>
		<path class="st0" d="M246.5,186.8c0-3.9,0.7-7.6,2-11c1.3-3.5,3.3-6.5,5.7-9.1c2.5-2.6,5.4-4.6,8.9-6.2c3.4-1.5,7.3-2.3,11.5-2.3    c5.5,0,10.3,1.2,14.3,3.7c4,2.4,7,5.7,9.1,9.8l-9.1,2.9c-1.4-2.6-3.4-4.7-5.9-6.1c-2.5-1.4-5.4-2.2-8.5-2.2c-2.5,0-5,0.5-7.2,1.5    c-2.3,1-4.2,2.5-5.8,4.3c-1.6,1.8-2.9,4-3.9,6.5s-1.4,5.2-1.4,8.2c0,2.9,0.5,5.6,1.5,8.2c1,2.5,2.3,4.8,4,6.6    c1.7,1.9,3.6,3.3,5.8,4.4c2.2,1.1,4.6,1.6,7.2,1.6c1.6,0,3.2-0.2,4.8-0.7c1.6-0.5,3-1.1,4.4-1.9c1.3-0.8,2.5-1.7,3.5-2.7    s1.7-2.1,2.1-3.3l9.1,2.8c-0.9,2.1-2,3.9-3.6,5.6c-1.5,1.7-3.3,3.1-5.4,4.4c-2.1,1.2-4.3,2.2-6.8,2.9s-5.1,1.1-7.9,1.1    c-4.2,0-8-0.8-11.5-2.3c-3.5-1.6-6.4-3.6-8.9-6.3c-2.5-2.6-4.4-5.7-5.8-9.2S246.5,190.6,246.5,186.8z"/>
		<path class="st0" d="M323.1,215.6c-2.8,0-5.3-0.4-7.6-1.3c-2.3-0.9-4.4-2.1-6.1-3.6s-3-3.3-4-5.4s-1.4-4.3-1.4-6.6    c0-2.6,0.6-5,1.7-7.2s2.7-4,4.8-5.5c2.1-1.5,4.6-2.7,7.4-3.5c2.9-0.8,6-1.2,9.4-1.2c2.7,0,5.4,0.2,8.2,0.7c2.8,0.5,5.2,1.2,7.3,2    v-4.5c0-4.5-1.3-8.1-3.8-10.7s-6.2-3.9-10.8-3.9c-5.6,0-11.5,2.2-17.6,6.5l-3.1-6.1c3.6-2.4,7.2-4.2,10.7-5.4    c3.5-1.2,7.2-1.8,11-1.8c7.1,0,12.7,1.9,16.8,5.8c4.1,3.9,6.2,9.4,6.2,16.5v22.7c0,2.2,1,3.3,3,3.4v8.1c-0.7,0.1-1.4,0.2-2,0.3    s-1.2,0.1-1.8,0.1c-1.6,0-3.1-0.4-4.6-1.3s-2.3-2.3-2.4-4.4l-0.2-3.9c-1.3,1.7-2.7,3.2-4.4,4.5c-1.6,1.3-3.4,2.3-5.2,3.2    c-1.8,0.9-3.7,1.5-5.7,1.9C326.9,215.4,325,215.6,323.1,215.6z M325.4,208.6c3,0,5.9-0.6,8.7-1.9c2.8-1.3,5.1-2.8,6.7-4.7    c1.3-1.6,2-3,2-4.4v-8.2c-2.2-0.9-4.5-1.5-7-2c-2.4-0.5-4.8-0.7-7.1-0.7c-4.8,0-8.7,1-11.6,2.9s-4.4,4.6-4.4,8    c0,1.4,0.3,2.8,0.9,4.1s1.4,2.5,2.4,3.5c1.1,1,2.4,1.8,3.9,2.4C321.7,208.3,323.4,208.6,325.4,208.6z"/>
		<path class="st0" d="M395.2,215.6c-4.6,0-8.7-1.1-12.2-3.4s-6.3-5.1-8.3-8.6v33.6h-9.3v-78h8.3v10.4c2.2-3.4,5-6.1,8.5-8.2    c3.5-2.1,7.4-3.1,11.6-3.1c3.8,0,7.3,0.8,10.5,2.3c3.2,1.6,5.9,3.7,8.3,6.3c2.4,2.6,4.2,5.7,5.5,9.2s2,7.1,2,10.8    c0,4-0.6,7.7-1.8,11.2c-1.2,3.5-2.9,6.5-5.1,9.1s-4.8,4.6-7.9,6.2C402.3,214.8,398.9,215.6,395.2,215.6z M392.4,207.5    c2.8,0,5.3-0.6,7.5-1.8s4.1-2.7,5.7-4.7s2.8-4.2,3.7-6.6c0.9-2.5,1.3-5,1.3-7.6c0-2.8-0.5-5.4-1.5-7.9s-2.3-4.7-4-6.6    s-3.7-3.4-6-4.5s-4.8-1.6-7.5-1.6c-1.7,0-3.5,0.3-5.3,1s-3.5,1.6-5.1,2.7c-1.6,1.1-3,2.4-4.1,3.9c-1.2,1.5-1.9,3.1-2.3,4.8v15.8    c0.8,1.8,1.8,3.6,3,5.1c1.2,1.6,2.6,3,4.1,4.1c1.6,1.2,3.2,2.1,5,2.8C388.6,207.2,390.5,207.5,392.4,207.5z"/>
		<path class="st0" d="M429.7,148.7V137h9.3v11.7H429.7z M429.7,214.5v-55.4h9.3v55.4H429.7z"/>
		<path class="st0" d="M480,211.8c-0.6,0.3-1.3,0.6-2.2,1s-2,0.8-3.1,1.2c-1.2,0.4-2.4,0.7-3.8,1c-1.4,0.2-2.8,0.4-4.3,0.4    c-3.4,0-6.3-0.9-8.8-2.8s-3.7-4.8-3.7-8.8v-37.3h-7.5v-7.4h7.5v-18.5h9.3v18.5h12.4v7.3h-12.4v34.4c0.1,2.1,0.8,3.5,2,4.5    c1.2,0.9,2.6,1.4,4.2,1.4c1.8,0,3.5-0.3,5-0.9s2.6-1.1,3.1-1.4L480,211.8z"/>
		<path class="st0" d="M502.1,215.6c-2.8,0-5.3-0.4-7.6-1.3s-4.4-2.1-6.1-3.6c-1.7-1.5-3-3.3-4-5.4s-1.4-4.3-1.4-6.6    c0-2.6,0.6-5,1.7-7.2c1.1-2.2,2.7-4,4.8-5.5s4.6-2.7,7.4-3.5c2.9-0.8,6-1.2,9.4-1.2c2.7,0,5.4,0.2,8.2,0.7c2.8,0.5,5.2,1.2,7.3,2    v-4.5c0-4.5-1.3-8.1-3.8-10.7s-6.2-3.9-10.8-3.9c-5.6,0-11.5,2.2-17.6,6.5l-3.1-6.1c3.6-2.4,7.2-4.2,10.7-5.4    c3.5-1.2,7.2-1.8,11-1.8c7.1,0,12.7,1.9,16.8,5.8c4.1,3.9,6.2,9.4,6.2,16.5v22.7c0,2.2,1,3.3,3,3.4v8.1c-0.7,0.1-1.4,0.2-2,0.3    s-1.2,0.1-1.8,0.1c-1.6,0-3.1-0.4-4.6-1.3s-2.3-2.3-2.4-4.4l-0.2-3.9c-1.3,1.7-2.7,3.2-4.4,4.5c-1.6,1.3-3.4,2.3-5.2,3.2    c-1.8,0.9-3.7,1.5-5.7,1.9C506.1,215.4,504.1,215.6,502.1,215.6z M504.6,208.6c3,0,5.9-0.6,8.7-1.9c2.8-1.3,5.1-2.8,6.7-4.7    c1.3-1.6,2-3,2-4.4v-8.2c-2.2-0.9-4.5-1.5-7-2c-2.4-0.5-4.8-0.7-7.1-0.7c-4.8,0-8.7,1-11.6,2.9c-2.9,1.9-4.4,4.6-4.4,8    c0,1.4,0.3,2.8,0.8,4.1c0.6,1.3,1.4,2.5,2.4,3.5c1.1,1,2.4,1.8,3.9,2.4C500.8,208.3,502.6,208.6,504.6,208.6z"/>
		<path class="st0" d="M544,137h9.3v63.2c0,2.1,0.5,3.7,1.6,4.8c1.1,1.2,2.6,1.8,4.6,1.8c0.8,0,1.7-0.1,2.8-0.4s2.1-0.5,3-0.9    l1.5,7.5c-1.6,0.6-3.4,1.2-5.5,1.6s-4,0.6-5.6,0.6c-3.6,0-6.5-1-8.5-3.1c-2.1-2.1-3.1-4.9-3.1-8.6L544,137L544,137z"/>
	</g>
</g>
</svg>